<svg xmlns="http://www.w3.org/2000/svg" version="1.1" xmlns:xlink="http://www.w3.org/1999/xlink" xmlns:svgjs="http://svgjs.dev/svgjs" width="1500" height="1500" viewBox="0 0 1500 1500"><rect width="1500" height="1500" fill="#ffffff"></rect><g transform="matrix(0.6666666666666666,0,0,0.6666666666666666,249.39393939393938,438.5856950067477)"><svg viewBox="0 0 396 247" data-background-color="#ffffff" preserveAspectRatio="xMidYMid meet" height="935" width="1500" xmlns="http://www.w3.org/2000/svg" xmlns:xlink="http://www.w3.org/1999/xlink"><g id="tight-bounds" transform="matrix(1,0,0,1,0.2400000000000091,-0.09999999999999432)"><svg viewBox="0 0 395.52 247.2" height="247.2" width="395.52"><g><svg></svg></g><g><svg viewBox="0 0 395.52 247.2" height="247.2" width="395.52"><g transform="matrix(1,0,0,1,75.54432000000001,102.34002030107527)"><svg viewBox="0 0 244.43135999999996 42.51995939784945" height="42.51995939784945" width="244.43135999999996"><g><svg viewBox="0 0 244.43135999999996 42.51995939784945" height="42.51995939784945" width="244.43135999999996"><g><svg viewBox="0 0 244.43136 42.519959397849455" height="42.51995939784945" width="244.43135999999996"><g><svg viewBox="0 0 244.43136 42.519959397849455" height="42.519959397849455" width="244.43136"><g id="textblocktransform"><svg viewBox="0 0 244.43136 42.519959397849455" height="42.519959397849455" width="244.43136" id="textblock"><g><svg viewBox="0 0 244.43136 42.519959397849455" height="42.519959397849455" width="244.43136"><g transform="matrix(1,0,0,1,0,0)"><svg width="244.43136" viewBox="-0.4 -36 209.23000000000002 36.4" height="42.519959397849455" data-palette-color="#000000"><path d="M29.55-33.85L16.9 0 12.25 0-0.4-33.85 5.95-33.85 10.15-21.75Q11.75-17.05 12.9-13.48 14.05-9.9 14.65-8L14.65-8Q15.2-9.9 16.32-13.38 17.45-16.85 19.15-21.65L19.15-21.65 23.5-33.85 29.55-33.85ZM37.6 0.2Q34.95 0.2 33.55-1.38 32.15-2.95 32.15-5.45L32.15-5.45 32.15-24.9 37.85-24.9 37.85-5.95Q37.85-4.8 38.2-4.4 38.55-4 39.25-4L39.25-4Q39.45-4 39.67-4 39.9-4 40.1-4.05L40.1-4.05Q40.3-4.05 40.55-4.1L40.55-4.1 41.15-0.5Q40.8-0.3 40.25-0.15L40.25-0.15Q39.8 0 39.12 0.1 38.45 0.2 37.6 0.2L37.6 0.2ZM35.1-36Q36.7-36 37.55-35.05 38.4-34.1 38.4-32.6L38.4-32.6Q38.4-31.1 37.52-30.1 36.65-29.1 34.95-29.1L34.95-29.1Q33.35-29.1 32.47-30.08 31.6-31.05 31.6-32.45L31.6-32.45Q31.6-34 32.47-35 33.35-36 35.1-36L35.1-36ZM56.3-19.7Q55.4-19.7 54.5-19.25 53.6-18.8 52.9-18.03 52.2-17.25 51.75-16.15 51.3-15.05 51.3-13.7L51.3-13.7 51.3 0 45.6 0 45.6-12.6Q45.6-15.6 45.2-17.63 44.8-19.65 44.35-20.9L44.35-20.9Q43.8-22.35 43.15-23.25L43.15-23.25 47.65-25.05Q48.1-24.5 48.6-23.7L48.6-23.7Q49-23 49.4-22.05 49.8-21.1 50.05-19.8L50.05-19.8Q51.05-22.7 52.95-23.98 54.85-25.25 57.25-25.25L57.25-25.25Q58.4-25.25 59.4-24.98 60.4-24.7 60.34-24.7L60.34-24.7 58.75-19.15Q58.8-19.15 58.17-19.43 57.55-19.7 56.3-19.7L56.3-19.7ZM61.34-20.85L61.34-24.9 65.84-24.9 66.84-30.75 71.54-31.8 71.54-24.9 77.69-24.9 76.99-20.85 71.54-20.85 71.54-6.05Q71.54-4.75 72.24-4.38 72.94-4 73.79-4L73.79-4Q74.49-4 75.19-4.1 75.89-4.2 76.44-4.35L76.44-4.35Q77.09-4.5 77.69-4.7L77.69-4.7 78.64-0.95 78.19-0.8Q77.74-0.6 76.87-0.38 75.99-0.15 74.82 0.03 73.64 0.2 72.24 0.2L72.24 0.2Q70.84 0.2 69.67-0.1 68.49-0.4 67.64-1.07 66.79-1.75 66.32-2.8 65.84-3.85 65.84-5.4L65.84-5.4 65.84-20.85 61.34-20.85ZM96.94-12.7L96.94-24.9 102.64-24.9 102.64-12.05Q102.64-9.05 103.02-7.03 103.39-5 103.84-3.75L103.84-3.75Q104.39-2.25 105.04-1.4L105.04-1.4 100.59 0.4Q99.99-0.15 99.49-1L99.49-1Q99.09-1.7 98.67-2.73 98.24-3.75 98.09-5.15L98.09-5.15Q96.74-2.2 94.29-0.95 91.84 0.3 89.19 0.3L89.19 0.3Q85.24 0.3 83.56-2 81.89-4.3 81.89-8.3L81.89-8.3 81.89-24.9 87.59-24.9 87.59-8.4Q87.59-6.3 88.34-5.1 89.09-3.9 90.89-3.9L90.89-3.9Q91.99-3.9 93.06-4.53 94.14-5.15 95.02-6.3 95.89-7.45 96.42-9.08 96.94-10.7 96.94-12.7L96.94-12.7ZM134.14-13L128.54 0 124.34 0 118.69-12.85Q118.44-13.4 118.06-14.35 117.69-15.3 117.24-16.45 116.79-17.6 116.29-18.88 115.79-20.15 115.34-21.45L115.34-21.45Q115.34-20.15 115.31-18.88 115.29-17.6 115.24-16.48 115.19-15.35 115.16-14.48 115.14-13.6 115.14-13.1L115.14-13.1 114.64 0 109.04 0 111.04-33.95 115.69-33.95 124.24-12.75Q124.69-11.6 125.26-10.25 125.84-8.9 126.34-7.6L126.34-7.6Q126.84-8.9 127.39-10.23 127.94-11.55 128.44-12.75L128.44-12.75 137.04-33.95 141.59-33.95 143.59 0 138.04 0 137.49-12.95Q137.44-14.2 137.36-16.53 137.29-18.85 137.24-21.25L137.24-21.25Q136.79-20 136.31-18.75 135.84-17.5 135.44-16.4 135.04-15.3 134.69-14.4 134.34-13.5 134.14-13L134.14-13ZM169.63-23.85L169.63-12.05Q169.63-9.05 170.01-7.03 170.38-5 170.84-3.75L170.84-3.75Q171.38-2.25 172.03-1.4L172.03-1.4 167.59 0.4Q166.94-0.25 166.38-1.15L166.38-1.15Q165.94-1.95 165.53-3.08 165.13-4.2 165.03-5.75L165.03-5.75Q164.19-2.75 162.31-1.23 160.44 0.3 157.23 0.3L157.23 0.3Q154.88 0.3 153.16-0.58 151.44-1.45 150.28-3.08 149.13-4.7 148.59-7 148.03-9.3 148.03-12.1L148.03-12.1Q148.03-14.95 148.91-17.38 149.78-19.8 151.36-21.55 152.94-23.3 155.13-24.3 157.34-25.3 159.98-25.3L159.98-25.3Q161.48-25.3 163.11-25.08 164.73-24.85 166.13-24.6 167.53-24.35 168.51-24.13 169.49-23.9 169.63-23.85L169.63-23.85ZM158.19-3.7Q159.44-3.7 160.48-4.55 161.53-5.4 162.31-6.78 163.09-8.15 163.51-9.93 163.94-11.7 163.94-13.55L163.94-13.55 163.94-20.75Q163.44-20.9 162.44-21.1 161.44-21.3 160.63-21.3L160.63-21.3Q158.73-21.3 157.51-20.65 156.28-20 155.53-18.85 154.78-17.7 154.48-16.1 154.19-14.5 154.19-12.6L154.19-12.6Q154.19-10.85 154.28-9.25 154.38-7.65 154.81-6.4 155.23-5.15 156.03-4.42 156.84-3.7 158.19-3.7L158.19-3.7ZM186.48-19.7Q185.58-19.7 184.68-19.25 183.78-18.8 183.08-18.03 182.38-17.25 181.93-16.15 181.48-15.05 181.48-13.7L181.48-13.7 181.48 0 175.78 0 175.78-12.6Q175.78-15.6 175.38-17.63 174.98-19.65 174.53-20.9L174.53-20.9Q173.98-22.35 173.33-23.25L173.33-23.25 177.83-25.05Q178.28-24.5 178.78-23.7L178.78-23.7Q179.18-23 179.58-22.05 179.98-21.1 180.23-19.8L180.23-19.8Q181.23-22.7 183.13-23.98 185.03-25.25 187.43-25.25L187.43-25.25Q188.58-25.25 189.58-24.98 190.58-24.7 190.53-24.7L190.53-24.7 188.93-19.15Q188.98-19.15 188.36-19.43 187.73-19.7 186.48-19.7L186.48-19.7ZM191.53-20.85L191.53-24.9 196.03-24.9 197.03-30.75 201.73-31.8 201.73-24.9 207.88-24.9 207.18-20.85 201.73-20.85 201.73-6.05Q201.73-4.75 202.43-4.38 203.13-4 203.98-4L203.98-4Q204.68-4 205.38-4.1 206.08-4.2 206.63-4.35L206.63-4.35Q207.28-4.5 207.88-4.7L207.88-4.7 208.83-0.95 208.38-0.8Q207.93-0.6 207.06-0.38 206.18-0.15 205 0.03 203.83 0.2 202.43 0.2L202.43 0.2Q201.03 0.2 199.85-0.1 198.68-0.4 197.83-1.07 196.98-1.75 196.5-2.8 196.03-3.85 196.03-5.4L196.03-5.4 196.03-20.85 191.53-20.85Z" opacity="1" transform="matrix(1,0,0,1,0,0)" fill="#000000" class="wordmark-text-0" data-fill-palette-color="primary" id="text-0"></path></svg></g></svg></g></svg></g></svg></g></svg></g></svg></g></svg></g><path d="M185.503 96.34L185.503 34.465 7.233 34.465 7.233 212.735 185.503 212.735 185.503 150.86 181.669 150.86 181.669 208.901 11.067 208.901 11.067 38.299 181.669 38.299 181.669 96.34Z" fill="#000000" stroke="transparent" data-fill-palette-color="tertiary"></path></svg></g><defs></defs></svg><rect width="395.52" height="247.2" fill="none" stroke="none" visibility="hidden"></rect></g></svg></g></svg>